<?xml version="1.0" encoding="utf-8"?>
<!-- Generator: Adobe Illustrator 27.2.0, SVG Export Plug-In . SVG Version: 6.00 Build 0)  -->
<svg version="1.1" id="Pokéball" xmlns="http://www.w3.org/2000/svg" xmlns:xlink="http://www.w3.org/1999/xlink" x="0px" y="0px"
	 viewBox="0 0 720 720" style="enable-background:new 0 0 720 720;" xml:space="preserve">
<style type="text/css">
	.st0{fill:#FFFFFF;}
	.st1{fill:#F7F7F7;}
	.st2{fill:#D7D7D7;}
	.st3{fill:#D4D4D4;}
	.st4{fill:#BFBFBF;}
</style>
<g id="Pokéball_1_">
	<g id="Colours">
		<path id="Down" class="st0" d="M358.5,381.4c-40.4,0-74.1-28.6-82.1-66.6H142C151.5,425.3,244.2,512,357.1,512
			s205.7-86.7,215.1-197.2H440.6C432.6,352.9,398.9,381.4,358.5,381.4z"/>
		<path id="Shadow_Down" class="st1" d="M406.5,506.4c89.6-21,157.7-97.7,165.7-191.6h-53C513.9,400,469.2,472.2,406.5,506.4z"/>
		<path id="Center" class="st0" d="M408,297.5L408,297.5C407.9,297.5,407.9,297.5,408,297.5c-0.1-6.1-1.2-11.9-3.2-17.3
			c-7-18.8-25.1-32.1-46.3-32.1s-39.3,13.4-46.3,32.1c-2,5.4-3.1,11.2-3.1,17.3l0,0h0.1l0,0c0,6.1,1.1,11.9,3.1,17.3
			c7,18.8,25.1,32.1,46.3,32.1s39.3-13.4,46.3-32.1C406.9,309.5,408,303.6,408,297.5L408,297.5z"/>
		<path id="Up" class="st2" d="M358.6,213.7c40.4,0,74.1,28.6,82.1,66.6h134.4C565.6,169.7,472.9,83,359.9,83
			s-205.6,86.7-215.1,197.2h131.7C284.5,242.2,318.2,213.7,358.6,213.7z"/>
		<path id="Shadow_Up" class="st3" d="M519.2,280.2H575c-8.2-95.5-78.6-173.3-170.5-192.6C468.3,121.3,513.8,194.2,519.2,280.2z"/>
	</g>
	<path id="Line" class="st4" d="M359.9,83c113,0,205.7,86.7,215.1,197.2H440.6c-8-38-41.7-66.6-82.1-66.6s-74.1,28.6-82.1,66.6
		H144.8C154.3,169.7,247,83,359.9,83z M404.8,280.2c2,5.4,3.1,11.2,3.1,17.3l0,0h0.1l0,0c0,6.1-1.1,11.9-3.1,17.3
		c-7,18.8-25.1,32.1-46.3,32.1c-21.2,0-39.3-13.4-46.3-32.1c-2-5.4-3.1-11.2-3.1-17.3l0,0h-0.1l0,0c0-6.1,1.1-11.9,3.1-17.3
		c7-18.8,25.1-32.1,46.3-32.1S397.8,261.5,404.8,280.2z M357.1,512.1c-113,0-205.7-86.7-215.1-197.2h134.4c8,38,41.7,66.6,82.1,66.6
		s74.1-28.6,82.1-66.6h131.7C562.8,425.3,470.1,512.1,357.1,512.1z M358.5,41.8c-141.2,0-255.7,114.5-255.7,255.7
		s114.5,255.7,255.7,255.7s255.8-114.4,255.8-255.7S499.8,41.8,358.5,41.8z"/>
</g>
</svg>
