<?xml version="1.0" encoding="utf-8"?>
<!-- Generator: Adobe Illustrator 27.2.0, SVG Export Plug-In . SVG Version: 6.00 Build 0)  -->
<svg version="1.1" id="Pokéball" xmlns="http://www.w3.org/2000/svg" xmlns:xlink="http://www.w3.org/1999/xlink" x="0px" y="0px"
	 viewBox="0 0 720 720" style="enable-background:new 0 0 720 720;" xml:space="preserve">
<style type="text/css">
	.st0{fill:#FFFFFF;}
	.st1{fill:#DFDFDF;}
	.st2{fill:#FF1C1C;}
	.st3{fill:#DF1818;}
	.st4{enable-background:new    ;}
</style>
<g id="Pokéball_1_">
	<g id="Colours">
		<path id="Down" class="st0" d="M358.5,381.4c-40.4,0-74.1-28.6-82.1-66.6H142C151.5,425.3,244.2,512,357.1,512
			s205.7-86.7,215.1-197.2H440.6C432.6,352.9,398.9,381.4,358.5,381.4z"/>
		<path id="Shadow_Down" class="st1" d="M406.5,506.4c89.6-21,157.7-97.7,165.7-191.6h-53C513.9,400,469.2,472.2,406.5,506.4z"/>
		<path id="Center" class="st0" d="M408,297.5L408,297.5C407.9,297.5,407.9,297.5,408,297.5c-0.1-6.1-1.2-11.9-3.2-17.3
			c-7-18.8-25.1-32.1-46.3-32.1s-39.3,13.4-46.3,32.1c-2,5.4-3.1,11.2-3.1,17.3l0,0h0.1l0,0c0,6.1,1.1,11.9,3.1,17.3
			c7,18.8,25.1,32.1,46.3,32.1s39.3-13.4,46.3-32.1C406.9,309.5,408,303.6,408,297.5L408,297.5z"/>
		<path id="Up" class="st2" d="M358.6,213.7c40.4,0,74.1,28.6,82.1,66.6h134.4C565.6,169.7,472.9,83,359.9,83
			s-205.6,86.7-215.1,197.2h131.7C284.5,242.2,318.2,213.7,358.6,213.7z"/>
		<path id="Shadow_Up" class="st3" d="M519.2,280.2H575c-8.2-95.5-78.6-173.3-170.5-192.6C468.3,121.3,513.8,194.2,519.2,280.2z"/>
	</g>
	<path id="Line" d="M359.9,83c113,0,205.7,86.7,215.1,197.2H440.6c-8-38-41.7-66.6-82.1-66.6s-74.1,28.6-82.1,66.6H144.8
		C154.3,169.7,247,83,359.9,83z M404.8,280.2c2,5.4,3.1,11.2,3.1,17.3l0,0h0.1l0,0c0,6.1-1.1,11.9-3.1,17.3
		c-7,18.8-25.1,32.1-46.3,32.1c-21.2,0-39.3-13.4-46.3-32.1c-2-5.4-3.1-11.2-3.1-17.3l0,0h-0.1l0,0c0-6.1,1.1-11.9,3.1-17.3
		c7-18.8,25.1-32.1,46.3-32.1S397.8,261.5,404.8,280.2z M357.1,512.1c-113,0-205.7-86.7-215.1-197.2h134.4c8,38,41.7,66.6,82.1,66.6
		s74.1-28.6,82.1-66.6h131.7C562.8,425.3,470.1,512.1,357.1,512.1z M358.5,41.8c-141.2,0-255.7,114.5-255.7,255.7
		s114.5,255.7,255.7,255.7s255.8-114.4,255.8-255.7S499.8,41.8,358.5,41.8z"/>
</g>
<g class="st4">
	<path d="M50.9,599.5h13.3v42.9H50.9V599.5z"/>
	<path d="M73.6,599.5h17.5l6.7,26.1l6.7-26.1h17.4v42.9h-10.9v-32.8l-8.4,32.8h-9.8l-8.4-32.8v32.8H73.6V599.5z"/>
	<path d="M156.8,635.4h-15.1l-2.1,7.1h-13.6l16.1-42.9h14.5l16.1,42.9H159L156.8,635.4z M154.1,626.1l-4.7-15.4l-4.7,15.4H154.1z"/>
	<path d="M197.6,626.9V618h20.5v18.3c-3.9,2.7-7.4,4.5-10.4,5.5s-6.6,1.5-10.7,1.5c-5.1,0-9.3-0.9-12.5-2.6
		c-3.2-1.7-5.7-4.3-7.5-7.8c-1.8-3.4-2.7-7.4-2.7-11.8c0-4.7,1-8.8,2.9-12.2s4.8-6.1,8.5-7.9c2.9-1.4,6.8-2.1,11.7-2.1
		c4.7,0,8.3,0.4,10.6,1.3c2.4,0.9,4.3,2.2,5.9,4s2.7,4.1,3.5,6.9l-12.8,2.3c-0.5-1.6-1.4-2.9-2.7-3.7s-2.9-1.3-4.8-1.3
		c-2.9,0-5.2,1-7,3s-2.6,5.2-2.6,9.6c0,4.6,0.9,8,2.6,10c1.7,2,4.2,3,7.3,3c1.5,0,2.9-0.2,4.2-0.6s2.9-1.2,4.6-2.2v-4H197.6z"/>
	<path d="M225.9,599.5h35.6v9.2h-22.3v6.8h20.7v8.8h-20.7v8.5h22.9v9.7h-36.2V599.5z"/>
	<path d="M289.4,599.5h12.4l16.2,23.8v-23.8h12.5v42.9H318l-16.1-23.6v23.6h-12.5V599.5z"/>
	<path d="M337.6,621c0-7,2-12.5,5.9-16.4c3.9-3.9,9.3-5.9,16.3-5.9c7.1,0,12.7,1.9,16.5,5.8s5.8,9.2,5.8,16.1c0,5-0.8,9.1-2.5,12.3
		c-1.7,3.2-4.1,5.7-7.3,7.5s-7.2,2.7-11.9,2.7c-4.8,0-8.9-0.8-12-2.3c-3.2-1.5-5.7-4-7.7-7.3C338.6,630.2,337.6,626,337.6,621z
		 M350.9,621.1c0,4.3,0.8,7.5,2.4,9.3s3.8,2.8,6.6,2.8c2.9,0,5.1-0.9,6.6-2.8c1.6-1.9,2.3-5.2,2.3-10c0-4-0.8-7-2.4-8.9
		c-1.6-1.9-3.8-2.8-6.6-2.8c-2.7,0-4.8,0.9-6.4,2.8C351.7,613.6,350.9,616.7,350.9,621.1z"/>
	<path d="M384.7,599.5H425v10.6h-13.5v32.3h-13.3v-32.3h-13.5V599.5z"/>
	<path d="M451.1,599.5h32.8v9.2h-19.5v7.5h16.6v8.7h-16.6v17.5h-13.3V599.5z"/>
	<path d="M489.4,621c0-7,2-12.5,5.9-16.4c3.9-3.9,9.3-5.9,16.3-5.9c7.1,0,12.7,1.9,16.5,5.8s5.8,9.2,5.8,16.1c0,5-0.8,9.1-2.5,12.3
		c-1.7,3.2-4.1,5.7-7.3,7.5s-7.2,2.7-11.9,2.7c-4.8,0-8.9-0.8-12-2.3c-3.2-1.5-5.7-4-7.7-7.3C490.4,630.2,489.4,626,489.4,621z
		 M502.7,621.1c0,4.3,0.8,7.5,2.4,9.3s3.8,2.8,6.6,2.8c2.9,0,5.1-0.9,6.6-2.8c1.6-1.9,2.3-5.2,2.3-10c0-4-0.8-7-2.4-8.9
		c-1.6-1.9-3.8-2.8-6.6-2.8c-2.7,0-4.8,0.9-6.4,2.8C503.5,613.6,502.7,616.7,502.7,621.1z"/>
	<path d="M569,599.5h13.2v25.6c0,2.5-0.4,4.9-1.2,7.2c-0.8,2.3-2,4.2-3.7,5.9c-1.7,1.7-3.5,2.9-5.3,3.6c-2.6,1-5.7,1.4-9.3,1.4
		c-2.1,0-4.4-0.1-6.8-0.4c-2.5-0.3-4.5-0.9-6.2-1.7c-1.7-0.9-3.2-2.1-4.6-3.7s-2.3-3.2-2.8-4.9c-0.8-2.7-1.2-5.2-1.2-7.3v-25.6h13.2
		v26.2c0,2.3,0.6,4.2,1.9,5.5c1.3,1.3,3.1,2,5.4,2c2.3,0,4.1-0.6,5.4-1.9c1.3-1.3,1.9-3.1,1.9-5.5V599.5z"/>
	<path d="M591.1,599.5h12.4l16.2,23.8v-23.8h12.5v42.9h-12.5l-16.1-23.6v23.6h-12.5V599.5z"/>
	<path d="M641.2,599.5h19.7c3.9,0,7,0.5,9.4,1.6c2.4,1.1,4.4,2.6,5.9,4.5c1.6,2,2.7,4.3,3.4,6.9s1.1,5.4,1.1,8.3
		c0,4.6-0.5,8.1-1.6,10.7c-1,2.5-2.5,4.6-4.4,6.4c-1.9,1.7-3.8,2.8-6,3.4c-2.9,0.8-5.5,1.2-7.9,1.2h-19.7V599.5z M654.5,609.2v23.5
		h3.3c2.8,0,4.7-0.3,5.9-0.9s2.1-1.7,2.8-3.2c0.7-1.5,1-4,1-7.5c0-4.6-0.7-7.7-2.2-9.3c-1.5-1.7-3.9-2.5-7.4-2.5H654.5z"/>
</g>
</svg>
